<?xml version="1.0" encoding="utf-8"?>
<!-- Generator: Adobe Illustrator 25.3.1, SVG Export Plug-In . SVG Version: 6.00 Build 0)  -->
<svg version="1.1" id="Ebene_1" xmlns="http://www.w3.org/2000/svg" xmlns:xlink="http://www.w3.org/1999/xlink" x="0px" y="0px"
	 viewBox="0 0 339.1 62" style="enable-background:new 0 0 339.1 62;" xml:space="preserve">
<style type="text/css">
	.st0{fill:#FFFFFF;}
</style>
<g>
	<path class="st0" d="M179.7,30.8c0-6.9-2.4-11.2-9.8-11.2h-5.3V41h6.7C175.5,41,179.7,38.4,179.7,30.8z"/>
	<path class="st0" d="M66.6,29.3h5.8c3.5,0,6.6-0.8,6.6-5.1c0-4.3-3.1-5.1-6.6-5.1h-5.8l0,0V29.3z"/>
	<polygon class="st0" points="205.4,21.7 205.3,21.7 200.9,34.2 209.7,34.2 	"/>
	<polygon class="st0" points="101,21.7 100.9,21.7 96.5,34.2 105.3,34.2 	"/>
	<path class="st0" d="M301.7,42.4c5.5,0,5.5-8.2,5.5-11.9c0-3.5-0.1-11.6-5.5-11.6s-5.4,8.1-5.4,11.6
		C296.2,34.3,296.1,42.4,301.7,42.4z"/>
	<path class="st0" d="M0,62h-0.3v0.4H339V62V0H0V62z M289.5,30.5c0-13,5.5-17.2,12.2-17.2S314,17.5,314,30.5
		c0,13.3-5.8,17.5-12.3,17.5S289.5,43.8,289.5,30.5L289.5,30.5z M274.6,19.1c-4,0-5.3,4.1-5.3,7.7h-6.5c-0.2-7.6,4.1-13.5,12.1-13.5
		c6.1,0,11.4,3.9,11.4,10.4c0,5-2.7,7.8-6,10.1c-3.3,2.3-7.2,4.2-9.6,7.7h15.8v5.8H262c0-7.7,4.8-11,10.5-14.9c3-2,7-4,7-8.1
		c0-0.2,0-0.3,0-0.5C279.5,21.1,277.2,19,274.6,19.1z M224.6,13.3h7.5v21.2c0,3.7,1,7.4,7,7.4c5.3,0,7.1-2.4,7.1-7.4V13.3h7.5v21.2
		c0,9.2-5.4,13.7-14.5,13.7c-9.1,0-14.5-4.4-14.5-13.7V13.3z M201.6,13.3h7.7l12.7,34h-7.8l-2.6-7.6h-12.7l-2.7,7.6h-7.6h0
		L201.6,13.3z M157,13.3h14.7c8.8,0,15.4,5.5,15.4,16.8c0,9.9-5,17.2-15.4,17.2H157l0,0V13.3z M121.5,13.3h7.4l14.2,22.8h0.1V13.3h7
		v34h-7.5l-14.2-22.8h-0.1v22.8h-7l0,0V13.3z M104.8,13.3l12.7,34h-7.8l-2.6-7.6H94.5l-2.7,7.6h-7.6l12.9-34H104.8z M59.1,13.3h15.3
		c8.5,0,11.8,5.4,11.8,10.9c0,5.5-3.3,10.9-11.8,10.9h-7.9v12.2h-7.5V13.3z M36.4,32.4c-5.1-1.3-10.1-3.3-10.1-9.7
		c0-7,6.6-10.3,12.7-10.3c7.1,0,13.6,3.1,13.6,11h-7.2c-0.2-4.1-3.1-5.1-6.7-5.1c-2.4,0-5.2,1-5.2,3.9c0,2.6,1.6,2.9,10.2,5.1
		c2.5,0.6,10.1,2.2,10.1,9.9c0,6.2-4.9,10.9-14.2,10.9c-7.5,0-14.6-3.7-14.5-12.1l7.2,0c0,4.5,3.5,6.3,7.5,6.3
		c2.6,0,6.6-0.8,6.6-4.2C46.5,34.3,41.5,33.7,36.4,32.4z"/>
	<rect x="339" y="-0.1" class="st0" width="0.1" height="0.1"/>
</g>
</svg>
